<?xml version="1.0" encoding="utf-8"?>
<?xml-stylesheet type="text/xsl" href="rss1.xsl"?>
<rss version="2.0" xmlns:atom="http://www.w3.org/2005/Atom" xmlns:content="http://purl.org/rss/1.0/modules/content/" xmlns:dc="http://purl.org/dc/elements/1.1/" xmlns:media="http://search.yahoo.com/mrss/">
<channel>
 <title>Getty</title>
 <link>http://www.gettyimg.com/</link>
 <atom:link href="http://www.gettyimg.com/" rel="self" type="application/rss+xml" />

 
                <item>
                <title><![CDATA[【HD Live Performances】UHDTV 4K - Lady Gaga - Mon truc en plumes ( Live @ 2024 Summer Olympics opening ceremony ) UHDTV HLG H265 2160p DD5.1-ilya2129]]></title>
                <link><![CDATA[https://sharemania.us/threads/lady-gaga-mon-truc-en-plumes-live-2024-summer-olympics-opening-ceremony-uhdtv-hlg-h265-2160p-dd5-1-ilya2129.251147/]]></link>
                <description><![CDATA[<article>
<blockquote class="messageText SelectQuoteContainer ugc baseHtml">
<div style="text-align: center"><img src="https://i123.fastpic.org/big/2024/0727/8d/36084e267d77b53b064eee23dcde028d.png?r=1" class="bbCodeImage LbImage" alt="[​IMG]" data-url="https://i123.fastpic.org/big/2024/0727/8d/36084e267d77b53b064eee23dcde028d.png?r=1" style=""><br>
<br>
<a href="https://fastpic.org/view/123/2024/0727/_a2f3a5ff2326cb90a6aabbf2ddea055d.png.html" target="_blank" class="externalLink" rel="nofollow"><img src="https://i123.fastpic.org/thumb/2024/0727/5d/_a2f3a5ff2326cb90a6aabbf2ddea055d.jpeg" class="bbCodeImage LbImage" alt="[​IMG]" data-url="https://i123.fastpic.org/thumb/2024/0727/5d/_a2f3a5ff2326cb90a6aabbf2ddea055d.jpeg"></a> <a href="https://fastpic.org/view/123/2024/0727/_b47f12a44572aa6ecc0c9d5f4ec7c840.png.html" target="_blank" class="externalLink" rel="nofollow"><img src="https://i123.fastpic.org/thumb/2024/0727/40/_b47f12a44572aa6ecc0c9d5f4ec7c840.jpeg" class="bbCodeImage LbImage" alt="[​IMG]" data-url="https://i123.fastpic.org/thumb/2024/0727/40/_b47f12a44572aa6ecc0c9d5f4ec7c840.jpeg"></a> <a href="https://fastpic.org/view/123/2024/0727/_f384f163f36d80d5a10efad280bfca7d.png.html" target="_blank" class="externalLink" rel="nofollow"><img src="https://i123.fastpic.org/thumb/2024/0727/7d/_f384f163f36d80d5a10efad280bfca7d.jpeg" class="bbCodeImage LbImage" alt="[​IMG]" data-url="https://i123.fastpic.org/thumb/2024/0727/7d/_f384f163f36d80d5a10efad280bfca7d.jpeg"></a> <a href="https://fastpic.org/view/123/2024/0727/_47bc8f937b92c39bca79eb97a8ba622f.png.html" target="_blank" class="externalLink" rel="nofollow"><img src="https://i123.fastpic.org/thumb/2024/0727/2f/_47bc8f937b92c39bca79eb97a8ba622f.jpeg" class="bbCodeImage LbImage" alt="[​IMG]" data-url="https://i123.fastpic.org/thumb/2024/0727/2f/_47bc8f937b92c39bca79eb97a8ba622f.jpeg"></a> <a href="https://fastpic.org/view/123/2024/0727/_5bec4b3c92f4a054c16174ec88c3892c.png.html" target="_blank" class="externalLink" rel="nofollow"><img src="https://i123.fastpic.org/thumb/2024/0727/2c/_5bec4b3c92f4a054c16174ec88c3892c.jpeg" class="bbCodeImage LbImage" alt="[​IMG]" data-url="https://i123.fastpic.org/thumb/2024/0727/2c/_5bec4b3c92f4a054c16174ec88c3892c.jpeg"></a><br>
<br>
​</div><br>
<div class="bbCodeBlock bbCodeCode">
<div class="type">Code:</div>
<pre>General
ID                                       : 1 (0x1)
Complete name                            : C:\Recordings\Glasto 2024\Lady Gaga - Mon truc en plumes ( Live @ 2024 Summer Olympics opening ceremony ) UHDTV HLG H265 2160p DD5.1-ilya2129.ts
Format                                   : MPEG-TS
File size                                : 789 MiB
Duration                                 : 5 min 0 s
Overall bit rate mode                    : Variable
Overall bit rate                         : 22.0 Mb/s
Frame rate                               : 50.000 FPS

Video
ID                                       : 101 (0x65)
Menu ID                                  : 1 (0x1)
Format                                   : HEVC
Format/Info                              : High Efficiency Video Coding
Format profile                           : Main 10@L5.1@Main
Codec ID                                 : 36
Duration                                 : 5 min 0 s
Bit rate                                 : 20.5 Mb/s
Width                                    : 3 840 pixels
Height                                   : 2 160 pixels
Display aspect ratio                     : 16:9
Frame rate                               : 50.000 FPS
Color space                              : YUV
Chroma subsampling                       : 4:2:0 (Type 2)
Bit depth                                : 10 bits
Bits/(Pixel*Frame)                       : 0.050
Stream size                              : 736 MiB (93%)
Color range                              : Limited
Color primaries                          : BT.2020
Transfer characteristics                 : HLG / BT.2020 (10-bit)
Matrix coefficients                      : BT.2020 non-constant

Audio
ID                                       : 102 (0x66)
Menu ID                                  : 1 (0x1)
Format                                   : AC-3
Format/Info                              : Audio Coding 3
Commercial name                          : Dolby Digital
Codec ID                                 : 6
Duration                                 : 5 min 0 s
Bit rate mode                            : Constant
Bit rate                                 : 384 kb/s
Channel(s)                               : 6 channels
Channel layout                           : L R C LFE Ls Rs
Sampling rate                            : 48.0 kHz
Frame rate                               : 31.250 FPS (1536 SPF)
Compression mode                         : Lossy
Delay relative to video                  : 18 ms
Stream size                              : 13.8 MiB (2%)
Language                                 : English
Service kind                             : Complete Main

</pre>
</div>
<div class="bbCodeBlock bbCodeVfcHH HiddenContent">
<div class="attribution type">Hidden Content:</div>
<blockquote>You must reply before you can see the hidden data contained here.</blockquote>
</div>
<div class="messageTextEndMarker">&nbsp;</div>
</blockquote>
</article>]]></description>
                <author><![CDATA[ilya2129]]></author>
                </item>

                
                <item>
                <title><![CDATA[【HD Live Performances】UHDTV 4K - Celine Dion - Hymne A L'Amour ( Live @ 2024 Summer Olympics opening ceremony ) UHDTV HLG H265 2160p DD5.1-ilya2129]]></title>
                <link><![CDATA[https://sharemania.us/threads/celine-dion-hymne-a-lamour-live-2024-summer-olympics-opening-ceremony-uhdtv-hlg-h265-2160p-dd5-1-ilya2129.251146/]]></link>
                <description><![CDATA[<article>
<blockquote class="messageText SelectQuoteContainer ugc baseHtml">
Thanks
<div class="messageTextEndMarker">&nbsp;</div>
</blockquote>
</article>]]></description>
                <author><![CDATA[ilya2129]]></author>
                </item>

                </channel></rss>